<svg xmlns="http://www.w3.org/2000/svg" viewBox="0 0 190 50">
  <g transform="translate(4.922 0) scale(0.0417365) translate(-367.1854 -214.5757)">
    <path fill="#696cff" d="M390.96 217.296c-7.776 3.6-14.256 10.656-18.864 21.024-5.76 12.24-6.48 36.432-2.016 58.32 13.248 64.224 64.944 136.224 133.056 184.896 12.096 8.64 12.528 9.216 4.176 5.904-19.728-7.776-35.28-4.032-42.192 10.08-12.528 25.776.144 77.472 28.8 117.648 11.088 15.552 30.816 34.704 45.504 44.352 9.072 5.904 10.224 7.056 6.192 6.192-2.736-.72-9.216-1.152-14.4-1.152-11.808.144-18.144 3.888-23.904 14.4-3.744 6.768-4.032 8.352-4.032 23.76 0 13.248.72 18.72 3.456 27.36 12.096 39.024 39.024 73.296 72.576 92.16 4.464 2.448 8.208 4.752 8.208 4.896s-4.896 0-10.944-.288c-13.968-.72-20.88 1.296-28.656 8.496-9.36 8.64-12.816 17.856-12.816 34.416 0 27.072 12.384 52.416 37.44 76.32 23.904 22.896 54.864 38.448 97.2 49.104 49.536 12.528 115.632 14.832 174.816 6.192 46.944-6.768 100.656-21.744 132.048-36.576 5.04-2.448 7.92-4.032 6.624-3.744-22.464 6.336-77.328 16.416-110.592 20.448-32.688 4.032-90.432 3.6-119.52-.72-42.912-6.336-79.056-17.568-116.496-36.288-36.72-18.144-48.96-27.648-56.16-43.056-6.624-14.256-4.032-30.24 5.616-35.28 7.2-3.744 14.256-2.736 28.368 4.176 26.928 13.104 56.16 22.32 91.152 28.512 15.84 2.88 22.752 3.312 59.04 3.168 36 0 43.344-.288 59.76-3.168 40.752-7.056 81.648-20.16 108-34.704 5.472-2.88 5.472-3.024 1.44-2.448-34.848 5.904-74.736 8.64-110.16 7.632-84.672-2.448-145.008-23.616-221.184-77.472-23.328-16.56-36.144-29.232-42.912-43.344-9.216-18.432-8.496-36.72 1.44-41.328 5.328-2.448 6.048-2.16 23.76 6.48 69.84 34.416 131.76 45.792 224.496 41.04 45.792-2.304 99.216-6.336 98.64-7.344-.288-.576-6.912-1.44-14.688-2.016-35.28-2.448-83.52-10.08-119.952-19.008-76.608-18.72-135.792-48.528-202.896-101.952-31.824-25.2-46.656-42.624-53.28-62.496-5.184-15.264-2.88-25.92 6.048-28.224 5.472-1.296 11.376 1.152 38.016 15.84 88.128 48.816 161.424 66.384 286.272 68.976l34.56.72-20.88-5.616c-125.712-33.696-217.584-80.208-306-154.944-34.272-28.944-88.848-84.528-108.288-110.304-13.68-18.288-24.912-41.616-24.912-52.272 0-15.984 14.832-11.664 43.488 12.384 60.48 50.976 98.208 75.456 170.208 110.736 43.056 20.88 73.872 33.984 167.184 71.136 144.144 57.456 191.52 80.064 250.272 119.088 47.808 31.824 89.712 73.728 113.904 113.76l6.768 11.232-83.088 224.928c-45.648 123.84-84.096 226.512-85.248 228.384-3.168 5.04-9.504 7.632-20.592 8.496l-9.936.864V1260h24.912c37.584 0 49.68-2.736 60.48-13.824 7.92-7.92 12.672-18.864 34.56-79.056 10.8-29.376 19.872-54.432 20.448-55.872 1.008-2.304 6.48-2.448 86.688-2.448 71.856 0 85.536-.288 85.104-2.016-.288-1.008-4.32-14.976-9.072-30.96l-8.64-28.944h-67.248c-39.744 0-67.392-.576-67.392-1.296s13.536-39.168 30.096-85.392c27.648-77.328 36.288-103.824 42.912-131.904 1.296-5.616 2.88-9.936 3.6-9.216 2.448 2.448 25.488 69.408 67.248 195.408 23.904 72 49.824 147.888 57.6 168.48 51.552 136.08 94.32 204.48 140.112 223.488 7.776 3.312 11.664 3.888 28.224 4.464l19.008.576v-45.936l-9.648-.72c-13.968-1.008-22.176-5.328-35.856-19.008-13.968-13.968-23.04-27.792-37.152-55.584-25.2-49.824-42.768-98.784-93.024-259.92-52.272-167.328-77.472-236.304-108.576-296.64-23.904-46.656-40.896-69.84-79.2-108-28.656-28.656-46.944-43.632-80.784-66.24-54.576-36.288-97.92-57.456-220.32-107.568-105.408-43.2-131.472-54.432-179.712-78.048-73.152-35.856-132.768-72.432-197.856-121.392-31.536-23.616-42.192-30.24-56.16-34.848-11.52-3.888-26.352-4.032-34.272-.288"/>
    <path fill="#696cff" d="M1074.24 329.328c-68.976 4.608-125.424 17.712-183.6 42.48-27.36 11.664-72.72 35.856-72.72 38.736 0 .576 2.448 2.016 5.472 3.168l5.328 2.16 25.2-12.528c71.28-35.424 138.24-51.12 217.44-51.12 48.384 0 85.824 4.896 129.744 16.992 139.68 38.304 258.768 141.408 315.936 273.456 19.584 45.36 31.536 90 37.584 140.688 3.024 25.2 3.456 76.608.72 100.656-6.336 59.328-22.32 115.056-47.52 166.464l-8.496 17.28 10.512 23.04c5.76 12.672 15.408 32.976 21.168 45.216l10.656 22.176 10.368-15.984c37.152-56.88 63.36-123.264 75.744-191.808 6.192-34.416 7.344-48.96 7.344-92.88s-1.152-58.464-7.344-92.88c-15.84-87.264-52.416-167.472-108.144-236.88-17.136-21.312-50.544-55.44-71.856-73.296-79.2-66.096-172.8-107.568-274.176-121.104-31.104-4.176-73.44-5.904-99.36-4.032m1559.664 398.016c-100.944 11.376-182.016 73.872-216.576 166.896-29.088 78.336-20.304 175.392 22.464 248.112 56.592 95.904 166.608 142.848 282.96 120.384 39.024-7.488 81.792-26.496 115.2-51.264 14.544-10.8 33.696-29.232 32.832-31.68-.432-1.152-9.36-13.248-19.728-26.928l-19.008-25.056-8.064 7.92c-26.208 25.776-64.944 47.376-101.376 56.592-57.6 14.4-110.736 6.768-155.088-22.464-46.224-30.384-78.048-80.928-88.128-139.536-4.176-24.48-3.168-66.24 2.16-88.56 9.504-40.032 25.632-69.264 52.56-95.184 37.44-36.432 83.088-53.136 138.528-51.12 55.584 2.016 103.248 22.32 115.632 49.392 2.592 5.76 3.168 10.224 3.6 26.64l.576 19.872h69.264l-.72-32.832c-.864-35.856-2.304-43.488-11.088-58.608-19.584-33.984-72.144-60.48-139.824-70.56-18.72-2.736-60.048-3.888-76.176-2.016M1716.48 766.08v31.68H1764V1260h74.88v-208.944l46.512.432 46.368.432 7.776 4.32c5.328 2.88 9.504 6.768 13.824 12.96 3.312 4.752 22.896 42.624 43.488 84.24s40.032 79.056 43.2 83.232c7.632 10.08 15.12 15.552 26.352 19.152 8.064 2.592 13.968 3.168 41.472 3.744l31.968.864v-63.792h-11.232c-14.688 0-24.912-3.024-29.808-8.928-2.16-2.448-19.296-35.424-38.16-73.296-34.848-69.696-37.728-74.304-49.68-82.944-4.032-2.88-4.176-3.168-1.44-4.032 20.88-7.056 37.584-17.568 51.984-32.544 11.52-12.096 16.848-19.584 23.616-32.976 26.352-52.128 20.88-125.856-12.672-169.92-24.048-31.68-60.048-50.976-104.688-56.16-7.92-.864-59.76-1.44-132.048-1.44H1716.48zm252.72 36.432c38.16 12.816 59.184 48.528 56.304 95.328-1.152 18.288-4.032 30.528-10.368 43.2-9.648 19.728-25.488 33.264-47.376 40.608l-11.52 3.888-58.608.576-58.752.432V797.616l59.472.432 59.328.576zm1346.976-64.224c-.864 2.304-38.016 103.104-82.8 224.064-44.64 121.104-82.512 222.336-84.096 224.928-4.032 6.48-10.8 9.36-22.176 9.36h-9.504v63.648l31.392-.72c37.008-.72 43.056-2.016 53.568-11.952 9.648-9.072 13.824-18.576 36.864-82.944l20.016-55.872h193.536l3.024 8.208c1.728 4.608 11.52 30.672 21.6 58.032 10.224 27.36 19.728 52.56 21.312 56.16 7.056 16.128 17.856 24.48 34.848 27.216 5.184.864 21.168 1.584 35.712 1.584h26.208v-63.36h-9.36c-10.512 0-17.136-2.304-21.744-7.344-1.872-2.016-36.72-94.464-86.4-229.248L3394.944 734.4h-77.184zm41.904 79.92c7.776 30.096 17.568 60.624 44.64 138.096l31.248 89.856-77.76.432c-42.768.144-78.048 0-78.336-.288s13.104-38.88 29.808-85.68c30.096-84.672 36.864-105.408 43.344-133.632 1.872-8.208 3.888-14.832 4.464-14.832s1.728 2.736 2.592 6.048m774.72-46.368v37.44h64.8V734.4h-64.8zm-287.28 103.824c-43.776 5.904-83.088 30.096-107.28 66.24-4.608 6.912-8.784 13.968-9.36 15.552-2.304 7.2-3.024 1.44-2.448-19.296.432-15.264 0-24.48-1.152-28.8-2.592-9.36-11.376-18.576-21.312-22.608-7.776-3.024-10.512-3.168-50.976-3.744l-42.912-.576v62.208h18.432c14.688 0 19.008.432 21.744 2.304 7.632 5.328 7.344.432 7.344 162.576V1260h70.272l.72-100.512c.72-108.576.576-106.56 8.928-132.048 17.568-53.424 63.072-87.12 117.072-87.12 36.864.144 58.464 16.128 67.248 49.68 4.176 16.272 5.04 39.312 5.04 137.664 0 109.728-.144 108.72 9.504 119.232 2.736 3.024 8.352 7.056 12.528 8.928 7.2 3.312 8.928 3.456 51.12 3.888l43.488.576v-62.208h-17.28c-18.288 0-24.336-1.584-26.784-6.768-.72-1.44-1.728-49.536-2.16-106.992-.864-112.032-.72-109.296-8.64-133.92-12.816-39.456-40.32-63.648-82.656-72.72-12.528-2.736-47.088-3.888-60.48-2.016m609.408 0c-59.328 7.344-112.896 40.32-143.856 88.416-13.824 21.312-23.328 45.792-27.936 71.28-3.312 18.432-3.312 53.568 0 71.856 14.976 81.936 76.752 142.704 160.704 158.112 18.288 3.312 56.304 3.312 74.16 0 42.624-7.776 78.192-25.632 107.424-53.856 28.8-27.936 46.944-61.344 55.44-101.952 3.6-17.712 3.744-57.888.144-75.888-7.92-39.888-26.64-74.304-55.44-102.24-28.224-27.36-62.496-45.216-102.384-53.136-16.416-3.312-51.984-4.608-68.256-2.592m47.952 63.216c45.36 7.2 83.52 38.592 99.36 81.648 19.584 53.856 5.76 116.64-33.552 152.64-25.632 23.328-57.168 34.704-92.448 33.12-59.472-2.592-105.696-42.192-119.664-102.528-4.032-16.992-3.744-50.256.576-67.536 5.904-23.76 17.568-44.784 34.56-61.776 28.512-28.944 69.696-42.048 111.168-35.568m-419.04-25.2v30.96h39.168l4.176 4.176 4.176 4.176v166.32c0 160.848-.144 166.464-2.88 177.264-9.072 35.856-36.144 54.144-79.92 54.144h-13.68v60.048l7.632 1.008c17.712 2.016 46.08 0 65.088-4.896 50.112-12.816 80.064-43.056 91.872-92.304l3.168-13.536V912.096l-4.32-8.496c-2.88-5.472-6.336-9.936-10.08-12.528-10.512-7.2-18.72-8.352-63.648-8.352h-40.752zM586.944 996.912c39.888 149.328 152.784 279.792 297.216 343.44 138.672 61.2 294.624 61.344 435.312.432 6.192-2.736 6.768-3.312 5.328-5.904-.864-1.584-10.656-15.12-21.744-29.952-11.232-14.832-20.736-27.792-21.312-28.8-.864-1.584-2.304-1.44-7.344 1.152-3.456 1.728-15.264 6.624-26.352 10.944-110.736 43.2-235.296 44.064-347.184 2.448-22.752-8.496-65.088-29.232-85.392-41.904-87.84-55.008-156.96-136.8-194.976-231.264-3.744-9.36-7.344-17.568-8.064-18.144-.576-.576-7.344-4.32-15.12-8.352l-13.824-7.344zM1468.8 1221.84V1260h72v-76.32h-72zm735.84 0V1260h72v-76.32h-72zm732.96 0V1260h73.44v-76.32h-73.44z"/>
  </g>
</svg>
